<svg version="1.1" xmlns="http://www.w3.org/2000/svg" xmlns:xlink="http://www.w3.org/1999/xlink" x="0px" y="0px" width="148.051px" height="72.707px" viewBox="0 0 148.051 72.707" enable-background="new 0 0 148.051 72.707" xml:space="preserve">
  <style>
    .page-header__logo--border {
      display: none;
    }

    .page-header__logo--decoration-border {
      display: none;
    }

    @media all and (min-width: 768px) {
      .page-header__logo--name {
        fill: #ffffff;
      }

      .page-header__logo--border {
        display: inline-block;
      }

      .page-header__logo--underline {
        display: none;
      }
    }

    @media all and (min-width: 1150px)  {
      .page-header__logo--decoration-border {
        display: inline-block;
      }
    }
  </style>
  <g class="page-header__logo--decoration-border">
    <path d="M143.165,31.397c-1.481,1.055-3.053,1.942-4.657,2.777c0.037-1.747-0.119-3.465-0.591-5.127 c0.051-0.333,0.102-0.667,0.145-1.002c0.375-3.005,0.657-7.122-2.003-9.224c-0.335-0.265-1.249-0.035-1.922,0.274 c-0.157-0.151-0.322-0.289-0.496-0.415c-0.082-0.242-0.159-0.487-0.229-0.735c-0.035-0.12-0.168-0.188-0.36-0.215 c0.285-0.383,0.263-0.818-0.419-1.092c-0.378-0.152-0.759-0.287-1.143-0.413c-0.067-0.072-0.126-0.096-0.172-0.058 c-0.001,0.001-0.004,0.002-0.006,0.003c-0.938-0.3-1.893-0.533-2.859-0.705c0.138-0.331,0.396-0.813,0.552-1 c0.132-0.157,0.279-0.3,0.429-0.439c0.062-0.057,0.125-0.111,0.188-0.165c0.032-0.027,0.053-0.046,0.069-0.061 c0.02-0.014,0.046-0.034,0.084-0.062c0.38-0.288,0.846-0.865,0.221-1.202c-0.57-0.307-1.507-0.142-2.007,0.238 c-0.863,0.655-1.626,1.379-2.092,2.361c-2.01-0.169-4.05-0.155-6.079-0.078c0.062-0.076,0.112-0.158,0.141-0.25 c0.184-0.585-0.908-0.525-1.188-0.488c-1.562,0.205-3.125,0.407-4.688,0.604c1.367-3.773,3.083-8.578,1.001-12.264 c-1.19-2.106-3.906-2.579-6.098-2.652c-2.436-0.081-4.898,0.461-7.036,1.636c-4.762,2.618-7.11,7.71-8.21,13.138 c-0.497-0.657-2.301-0.425-2.645,0.468c-0.124,0.32-0.229,0.645-0.327,0.972c-0.16,0.174-0.282,0.386-0.345,0.637 c-0.015,0.056-0.027,0.111-0.041,0.167c-0.065,0.002-0.131,0.005-0.196,0.007c0.02-0.104,0.041-0.207,0.064-0.31 c0.146-0.109,0.247-0.232,0.28-0.366c0.574-2.296,1.156-4.588,1.948-6.82c0.269-0.756-2.511-0.399-2.804,0.426 c-0.424,1.193-0.786,2.403-1.12,3.622c-0.165,0.078-0.356,0.187-0.425,0.326c-0.017,0.034-0.031,0.07-0.047,0.104 c-0.107-0.093-0.271-0.151-0.466-0.178c0-0.319,0-0.639,0-0.959c0-0.432-2.823-0.034-2.823,0.757c0,0.522,0,1.046,0,1.568 c-0.167,0.072-0.327,0.158-0.472,0.266c-0.063,0.057-0.127,0.114-0.19,0.172c-0.073,0.071-0.113,0.152-0.12,0.245 c-0.007,0.026-0.013,0.053-0.023,0.078c-0.017,0.022-0.032,0.046-0.052,0.066c-0.126,0.128-0.184,0.335-0.027,0.467 c0.19,0.16,0.508,0.167,0.738,0.159c0.048-0.002,0.097-0.007,0.146-0.011c0,0.156,0,0.312,0,0.468 c-0.226-0.001-0.45-0.003-0.675-0.006l-0.411-0.051c-0.021-0.385-0.676-0.452-1.351-0.328c0.006-0.049,0.007-0.098-0.001-0.148 c-0.101-0.595-0.174-1.192-0.229-1.79c0.237-0.079,0.471-0.18,0.68-0.313c0.159-0.102,0.328-0.224,0.328-0.43 c0-0.064,0-0.13,0-0.194c0-0.18-0.412-0.204-0.499-0.208c-0.195-0.009-0.394,0.009-0.589,0.041 c-0.075-1.305-0.081-2.615-0.081-3.925c0-0.84-2.824-0.315-2.823,0.757c0,1.786,0.009,3.57,0.193,5.343 c-0.087-0.002-0.178,0.001-0.27,0.009c0-0.511,0-1.021,0-1.532c0-1.045-1.297-1.22-2.147-0.809 c0.313-0.262,0.489-0.622,0.37-1.039c-0.403-1.414-0.778-2.827-0.974-4.287c-0.188-1.394-3.017-0.677-2.824,0.756 c0.196,1.46,0.57,2.873,0.975,4.287c0.235,0.828,1.338,0.889,2.104,0.51c-0.227,0.196-0.373,0.452-0.373,0.76 c0,0.21,0,0.42,0,0.63c-0.189-0.098-0.439-0.16-0.77-0.16c-1.057,0-1.671,0.885-1.4,1.477c-0.164-0.027-0.327-0.054-0.491-0.083 c-0.382-1.248-0.686-2.514-0.714-3.83c-0.02-0.942-1.27-1.049-2.108-0.672c-0.008-0.056-0.022-0.111-0.049-0.168 c-0.385-0.804-0.567-1.674-0.78-2.533c-0.332-1.35-3.158-0.601-2.823,0.756c0.157,0.638,0.3,1.281,0.519,1.898 c-0.018,0.005-0.039,0.009-0.056,0.014c-0.3,0.081-0.601,0.205-0.854,0.387c-0.832,0.079-1.828,0.565-1.752,1.208 c0.058,0.478,0.131,0.953,0.209,1.427c-0.546,0.091-1.092,0.177-1.639,0.26c-0.289-0.787-0.499-1.601-0.618-2.443 c-0.131-0.924-1.555-0.854-2.332-0.26c-0.774-2.062-1.796-4.019-3.122-5.761c-2.621-3.439-7.097-4.613-11.242-3.794 c-1.9,0.376-3.735,1.184-5.043,2.646c-1.21,1.353-1.352,3.089-1.17,4.805c0.158,1.493,0.61,4.005,1.584,5.976 c-0.35-0.012-0.709,0.041-0.949,0.139c-0.283,0.117-0.561,0.248-0.833,0.388c-1.939,0.029-3.877,0.019-5.803-0.07 c-4.179-0.194-8.301-0.86-12.497-0.742c-0.923,0.026-1.534,0.719-1.465,1.262c-1.046,0.502-1.733,1.315-2.143,2.287 c-1.732-1.15-3.479-2.266-5.335-3.211c-0.689-0.351-3.3,0.707-2.285,1.224c1.84,0.938,3.561,2.072,5.278,3.216 c0.512,0.341,1.32,0.133,1.842-0.07c0.03-0.012,0.09-0.039,0.165-0.077c-0.306,1.44-0.157,3.067,0.241,4.493 c0.03,0.11,0.093,0.198,0.172,0.27c-0.021,0.338-0.023,0.677-0.007,1.015c-0.001,0.055-0.001,0.109-0.002,0.165 c-0.4,0.189-0.712,0.48-0.76,0.839c-0.188,1.411-0.278,2.82-0.305,4.229c-0.272,0.199-0.462,0.469-0.485,0.798 c-0.233,3.345,0.037,6.652,0.467,9.95c0.185,2.694,0.69,5.344,1.172,7.999c0.058,0.416,0.113,0.832,0.167,1.249 c-0.265,1.133-0.398,2.395-0.237,3.482c-0.881,0.171-1.729,0.866-1.233,1.617c0.765,1.158,1.644,2.018,2.606,2.649 c-0.633-0.103-1.42,0.11-1.871,0.555c-0.818,0.809-1.715,1.531-2.533,2.339c-0.429,0.424-0.314,0.935,0.289,1.078 c0.651,0.155,1.516-0.06,1.997-0.535c0.817-0.808,1.715-1.531,2.533-2.339c0.248-0.245,0.308-0.517,0.204-0.731 c3.21,1.735,7.235,1.27,11.114,0.943c-0.882,1.589-1.542,3.273-2.17,4.997c-0.262,0.719,2.507,0.373,2.801-0.436 c0.61-1.675,1.237-3.343,2.103-4.895c3.741,0.117,7.479,0.122,11.215,0.051c0.149,0.182,0.416,0.305,0.746,0.336 c3.27,0.311,6.489-0.096,9.688-0.699c4.789-0.229,9.577-0.525,14.366-0.809c7.527-0.186,15.056-0.346,22.587-0.32 c0.1,0.109,0.204,0.215,0.314,0.318c0.272,0.256,0.621,0.345,0.979,0.33c0.062,0.009,0.128,0.016,0.199,0.019 c0.714,0.036,1.428,0.087,2.141,0.145c0.156,0.04,0.341,0.059,0.559,0.046c0.002,0,0.004,0,0.005,0 c0.782,0.067,1.563,0.14,2.346,0.208c0.171,0.214,0.497,0.342,0.792,0.361c3.804,0.25,7.612,0.522,11.423,0.703 c0.14,0.229,0.536,0.34,0.82,0.343c7.067,0.06,15.278,2.804,21.558-1.736c0.501-0.362,0.273-0.877-0.264-0.984 c-0.108-0.021-0.217-0.031-0.326-0.034c0.008-0.016,0.018-0.03,0.023-0.045c1.195-2.769,2.174-5.633,2.945-8.552 c0.365-0.198,0.632-0.494,0.646-0.86c0.049-1.189,0.188-2.406,0.371-3.639c0.166-0.884,0.313-1.771,0.441-2.66 c0.387-2.169,0.806-4.367,1.018-6.541c2.28-1.147,4.538-2.335,6.622-3.819C146.562,31.417,144.213,30.651,143.165,31.397z M87.835,16.351c-0.049,0.039-0.094,0.079-0.134,0.123c0.073-0.312,0.149-0.623,0.228-0.934c0.036,0.001,0.073,0.001,0.111,0 C87.972,15.81,87.902,16.081,87.835,16.351z"/>
    <path d="M63.261,12.626c0.127,0.196,0.562,0.217,0.753,0.217c0.377,0.001,0.759-0.083,1.106-0.225 c0.404-0.166,1.101-0.559,0.77-1.07c-0.363-0.562-0.609-1.19-0.975-1.754c-0.127-0.196-0.562-0.217-0.754-0.217 c-0.376-0.001-0.758,0.083-1.105,0.226c-0.404,0.165-1.101,0.558-0.77,1.069C62.649,11.434,62.896,12.063,63.261,12.626z"/>
    <path d="M20.683,10.907c0.216,0.647,1.111,0.647,1.648,0.504c0.472-0.127,1.39-0.616,1.175-1.26 c-0.208-0.624-0.433-1.293-0.893-1.78c-0.479-0.507-1.324-0.417-1.902-0.151c-0.412,0.19-1.177,0.838-0.695,1.349 C20.398,9.974,20.494,10.341,20.683,10.907z"/>
    <path d="M30.66,13.895c0.843,0,3.073-1.276,1.186-1.276C31.003,12.619,28.772,13.895,30.66,13.895z"/>
    <path d="M122.562,12.274c0.346,0.072,0.717,0.032,1.055-0.059c0.321-0.086,0.7-0.234,0.941-0.477 c0.355-0.355,0.728-0.729,0.962-1.178c0.104-0.198,0.174-0.399-0.005-0.587c-0.188-0.197-0.507-0.245-0.763-0.251 c-0.376-0.01-0.761,0.074-1.106,0.22c-0.252,0.106-0.621,0.294-0.756,0.553c-0.098,0.186-0.218,0.353-0.351,0.513 c-0.008,0.009-0.016,0.018-0.023,0.027c-0.011,0.012-0.021,0.023-0.028,0.032c-0.064,0.067-0.13,0.133-0.195,0.199 c-0.158,0.158-0.346,0.365-0.279,0.614C122.077,12.121,122.347,12.229,122.562,12.274z"/>
    <path d="M135.861,17.692c0.631-0.061,1.395-0.246,1.894-0.662c1.319-1.102,2.603-2.248,3.623-3.642 c0.288-0.393-1.049-0.243-1.118-0.23c-0.534,0.099-1.316,0.276-1.661,0.746c-0.949,1.296-2.164,2.349-3.391,3.374 C134.71,17.693,135.649,17.712,135.861,17.692z"/>
    <path d="M146.74,44.769c-1.624,0-3.248,0-4.872,0c-0.616,0-1.475,0.468-1.556,1.139c-0.09,0.739,0.754,0.922,1.304,0.922 c1.624,0,3.248,0,4.871,0c0.617,0,1.475-0.468,1.557-1.139C148.134,44.952,147.29,44.769,146.74,44.769z"/>
    <path d="M57.021,60.784c-0.498,0.08-1.412,0.296-1.639,0.831c-0.538,1.272-0.981,2.571-1.364,3.897 c-0.211,0.733,2.571,0.333,2.798-0.451c0.383-1.327,0.825-2.625,1.363-3.897C58.401,60.637,57.213,60.752,57.021,60.784z"/>
    <path d="M61.602,63.375c-0.347-0.003-0.696,0.063-1.029,0.152c-0.333,0.089-0.67,0.207-0.968,0.383 c-0.141,0.084-0.338,0.2-0.338,0.39c-0.001,0.116-0.007,0.231-0.021,0.346c-0.025,0.103-0.06,0.2-0.125,0.286 c0.004-0.004,0.008-0.009,0.012-0.014c-0.064,0.082-0.108,0.179,0.018,0.253c0.196,0.114,0.502,0.083,0.712,0.062 c0.374-0.037,0.745-0.127,1.099-0.252c0.243-0.085,0.613-0.207,0.795-0.407c0.149-0.164,0.241-0.286,0.284-0.501 c0.035-0.177,0.05-0.349,0.05-0.529C62.09,63.378,61.669,63.376,61.602,63.375z"/>
    <path d="M116.652,67.051c-0.354-0.686-3.043,0.331-2.823,0.757c0.844,1.638,1.939,3.122,2.923,4.677 c0.436,0.689,3.04-0.414,2.823-0.757C118.593,70.174,117.496,68.689,116.652,67.051z"/>
    <path d="M120.744,64.713c-0.294-0.588-1.067-0.563-1.624-0.414c-0.35,0.094-1.485,0.598-1.199,1.17 c0.39,0.78,0.779,1.559,1.169,2.339c0.294,0.588,1.068,0.562,1.624,0.414c0.35-0.094,1.486-0.598,1.199-1.171 C121.523,66.272,121.134,65.493,120.744,64.713z"/>
    <path d="M5.668,43.105c-1.486,0.359-3.006,0.571-4.481,0.975c-0.537,0.146-1.342,0.641-1.16,1.318 c0.181,0.675,1.128,0.709,1.664,0.562c1.476-0.403,2.995-0.615,4.482-0.975c0.541-0.13,1.338-0.651,1.16-1.318 C7.148,42.982,6.209,42.975,5.668,43.105z"/>
  </g>
  <g class="page-header__logo--border">
    <path d="M129.364,56.884c4.394,0.868,0.843-35.858,0.147-38.311c-1.96-6.569-26.677-2.144-32.18-1.717 c-12.723,0.987-25.189-0.96-37.611-0.376c-6.205,0.292-34.854-1.813-37.519,1.986c-5.048,7.208-2.652,25.797-1.278,35.076 c-4.043,0.779,2.309,4.154,3.138,4.897c6.314,2.192,16.358-0.219,23.007,0.396c15.434,1.472,31.797-2.194,47.276-0.955 c4.496,1.144,9.604,1.019,14.224,1.239C111.982,64.691,128.232,56.658,129.364,56.884 C129.264,56.864,129.871,56.984,129.364,56.884z"/>
  </g>
  <g class="page-header__logo--underline">
    <path d="M112.736,53.505c-1.558-0.585-3.283-0.615-4.851-0.787c-1.603-0.17-3.245-0.41-4.884-0.562 c-1.637,0.053-3.31,0.027-4.972,0.129l-4.88,0.268c-6.487,0.289-12.999,0.253-19.517,0.107c-6.517-0.123-13.045-0.477-19.63-0.453 c-3.288,0.008-6.565,0.099-9.862,0.25c-1.632,0.283-3.239,0.501-4.904,0.913c-1.615,0.399-3.145,0.907-4.794,1.048 c1.623,0.362,3.341,0.292,4.962,0.297c1.579,0.01,3.243,0.143,4.872,0.231c3.229-0.172,6.487-0.246,9.733-0.25 c6.487-0.024,13.015,0.329,19.565,0.451c6.548,0.146,13.114,0.186,19.683-0.11l4.907-0.269c1.603-0.071,3.198-0.127,4.829-0.067 c1.628-0.148,3.253-0.33,4.918-0.532c1.664-0.238,3.22-0.627,4.854-0.509l0.074,0.006l0.006-0.055 c0.021-0.178-0.04-0.323-0.04-0.479C112.772,53.251,112.767,53.388,112.736,53.505z"/>
  </g>
  <g class="page-header__logo--name">
    <path d="M36.638,46.517c-0.014-3.472-0.262-6.938-0.356-10.409c-0.008-0.34-0.015-0.681-0.02-1.021 c0.049,0.122,0.097,0.243,0.146,0.364c0.54,1.352,1.103,2.663,1.839,3.92c0.731,1.244,1.099,2.58,1.521,3.939 c-0.159,0.182-0.256,0.39-0.196,0.596c-0.033,0.15,0.059,0.245,0.212,0.306c0.537,0.46,1.55,0.231,2.113-0.008 c0.242-0.102,0.474-0.221,0.696-0.355c0.29-0.181,0.744-0.572,0.613-0.977c-0.024-0.079-0.049-0.157-0.072-0.235 c0.396-1.068,0.598-2.179,0.813-3.308c0.23-1.206,0.659-2.345,1.092-3.485c0.043,0.521,0.088,1.044,0.129,1.56 c0.174,2.147,0.028,4.27,0.008,6.422c-0.008,0.713,0.046,1.375,0.184,2.075c0.059,0.287,0.31,1.521,0.235,1.58 c-0.516,0.476-0.366,1.061,0.326,1.211c0.771,0.169,1.753-0.088,2.333-0.625c1.009-0.934,0.531-2.396,0.304-3.572 c-0.385-1.973,0.077-4.181,0.017-6.189c-0.069-2.26-0.43-4.503-0.399-6.769c0.023-1.831,0.328-3.714-0.303-5.471 c0.039-0.2,0.08-0.398,0.117-0.6c0.163-0.879-2.754-0.414-3.212,0.392c-0.29,0.235-0.438,0.519-0.313,0.806 c0.031,0.071,0.057,0.146,0.084,0.219c-0.552,2.699-1.321,5.313-2.207,7.93c-0.339,1.001-0.748,1.977-1.095,2.978 c-0.49-0.933-0.986-1.851-1.384-2.847c-1.155-2.891-2.199-5.813-3.61-8.596c0.16-1.289-2.698-1.153-3.261,0.02 c-0.682,1.426-0.592,2.866-0.369,4.393c0.254,1.721,0.298,3.411,0.32,5.147c0.039,3.347,0.3,6.689,0.351,10.04 c-0.298,0.331-0.389,0.741-0.078,1.158c0.136,0.182,0.306,0.321,0.482,0.46C34.454,48.198,36.643,47.679,36.638,46.517z"/>
    <path d="M54.834,28.145c-0.089-0.613-3.416,0.084-3.3,0.885c0.259,1.776,0.167,3.561,0.136,5.352 c-0.031,1.722,0.394,3.282,0.615,4.971c0.226,1.732-0.071,3.502,0.126,5.235c0.09,0.812,0.632,2.312,0.074,3.018 c-0.354,0.447,1.237,0.285,1.31,0.275c0.646-0.12,1.509-0.331,1.938-0.875c0.552-0.697,0.165-2.042,0.045-2.82 c-0.267-1.734-0.097-3.537-0.162-5.286c-0.061-1.676-0.644-3.254-0.65-4.946C54.957,32.001,55.119,30.077,54.834,28.145z"/>
    <path d="M57.958,34.791c0.91,2.514,4.648,1.327,6.551,1.471c3.238,0.239,2.272,4.607,2.313,6.641 c0.022,1.085,0.995,2.889,0.179,3.798c-0.502,0.556-1.669,0.589-2.352,0.646c-0.687,0.057-1.854,0.261-2.312-0.39 c-0.836-1.194,0.077-3.2-0.102-4.568c-0.103-0.78-3.424-0.08-3.299,0.884c0.29,2.211-1.179,5.175,2.022,5.556 c2.059,0.244,4.372-0.136,6.317-0.783c1.008-0.334,1.943-0.792,2.731-1.509c0.872-0.794,0.585-1.979,0.352-2.987 c-0.569-2.458,0.616-5.289-0.987-7.454c-1.738-2.345-4.962-0.657-7.212-1.297c-1.161-0.33-1.175-1.911-1.17-2.86 c0.002-1.202-0.098-2.302-0.231-3.491c-0.1-0.887-0.021-1.787,0.628-2.447c0.119-0.121,0.723-0.283,0.681-0.28 c0.299-0.051,0.572-0.062,0.9-0.076c1.304-0.056,3.885,0.195,3.386,2.092c-0.226,0.851,3.028,0.363,3.266-0.53 c1.021-3.874-6.138-3.131-8.159-2.593c-1.863,0.494-3.916,1.555-4.023,3.704c-0.052,1.027,0.229,2.006,0.274,3.022 C57.764,32.494,57.546,33.662,57.958,34.791z"/>
    <path d="M72.413,36.661c-0.053,1.799-0.208,3.593-0.22,5.393c-0.006,0.921,0.146,1.842,0.278,2.75 c0.122,0.841,0.407,1.964,0.152,2.796c-0.198,0.646,3,0.242,3.254-0.587c0.458-1.497-0.188-3.402-0.341-4.918 c-0.147-1.451-0.032-2.945,0.072-4.42c1.708-0.11,3.418-0.249,5.119-0.011c0.076,1.163,0.164,2.321,0.272,3.48 c0.088,0.976,0.151,1.948,0.164,2.929c0.015,0.855,0.12,2.099-0.185,2.913c-0.651,1.731,2.655,1.59,3.136,0.30 c0.592-1.577,0.423-3.537,0.323-5.194c-0.13-2.059-0.404-4.106-0.47-6.166c-0.102-3.183-0.58-6.329-0.594-9.51 c-0.007-1.661-3.338-1.099-3.331,0.288c0.012,3.04,0.417,6.037,0.571,9.068c0.005,0.061,0.008,0.121,0.01,0.18 c-1.64-0.016-3.281,0.149-4.929,0.207c0.171-3.902-0.515-7.771-0.364-11.672c0.02-0.492-3.264-0.077-3.3,0.883 C71.887,29.151,72.526,32.891,72.413,36.661z"/>
    <path d="M86.493,42.032c-0.254,0.259-0.159,0.414,0.045,0.506c0.001,1.474-0.05,2.949-0.178,4.424 c-0.396,0.63,0.39,0.96,0.912,0.96c0.028,0,0.055,0,0.082,0c0.622,0,2.209-0.293,2.289-1.148c0.162-1.769,0.211-3.535,0.196-5.299 c1.337-1.446,2.434-3.057,3.416-4.748c0.64,1.248,1.247,2.505,1.676,3.861c0.725,2.31,1.938,4.431,2.637,6.75 c0.459,1.521,3.754,0.621,3.298-0.885c-0.701-2.319-1.856-4.462-2.638-6.75c-0.791-2.322-1.998-4.361-3.046-6.568 c0.845-1.641,1.699-3.283,2.47-4.96c0.698-1.524,1.219-3.216,2.594-4.289c0.483-0.376,0.464-0.755-0.216-0.801 c-0.737-0.054-1.738,0.159-2.334,0.625c-1.25,0.974-2.042,2.158-2.694,3.595c-0.784,1.726-1.598,3.421-2.455,5.117 c-0.061,0.123-0.125,0.248-0.188,0.373c-0.412,0.264-0.66,0.642-0.539,1.064c-0.666,1.316-1.347,2.627-2.104,3.885 c-0.252-4.661-0.803-9.317-0.969-13.983c-0.036-1.068-3.345-0.403-3.297,0.886c0.204,5.785,1.024,11.557,1.083,17.34 C86.52,42.002,86.505,42.018,86.493,42.032z"/>
    <path d="M118.027,35.8c-0.177-0.701-1.155-0.716-1.914-0.648c-0.01-0.281-0.017-0.566-0.029-0.849 c-0.106-2.241-0.139-4.53-0.329-6.765c-0.176-2.069-1.335-2.812-3.346-2.734c-2.035,0.077-4.404,0.443-6.302,1.183 c-2.197,0.853-3.421,2.471-3.841,4.784c-0.464,2.539,0.201,5.238,0.313,7.789c0.13,2.951,0.056,5.909,0.054,8.859 c0,0.484,3.297,0.027,3.297-0.884c0.004-2.338,0.037-4.676,0-7.014c-0.011-0.688-0.043-1.374-0.085-2.057 c1.155-0.499,3.106,0.01,4.255,0.118c0.933,0.089,1.826-0.138,2.732-0.244c0.017,1.946,0.09,3.905,0.17,5.851 c0.042,0.997,0.402,2.975-0.297,3.799c-0.368,0.436,1.249,0.288,1.31,0.28c0.668-0.124,1.482-0.338,1.939-0.87 c0.8-0.942,0.384-3.192,0.338-4.316c-0.065-1.611-0.086-3.223-0.121-4.834C117.144,37.111,118.208,36.515,118.027,35.8z M111.365,35.638c-1.928-0.046-3.828-0.349-5.651,0.036c-0.086-1.051-0.183-2.098-0.255-3.154 c-0.134-1.962,0.099-4.702,1.928-5.896c0.492-0.318,1.413-0.264,1.984-0.368c0.819-0.147,1.647-0.328,2.384,0.16 c1.018,0.676,0.769,3.08,0.766,4.101c-0.002,1.69,0.177,3.37,0.262,5.059C112.317,35.622,111.844,35.648,111.365,35.638z"/>
    <path d="M51.159,24.322c-0.048,0.18,0.013,0.356,0.119,0.497c0,0.039,0.002,0.075,0.002,0.114c0.004,0.094,0.009,0.188,0.013,0.282 c0.062,0.194,0.182,0.343,0.362,0.446c0.325,0.196,0.737,0.232,1.108,0.196c0.439-0.041,0.882-0.191,1.245-0.439 c0.072-0.062,0.143-0.122,0.216-0.183c0.438-0.282,0.818-0.697,0.612-1.146c-0.424-0.932-0.358-1.88-0.35-2.87 c0.005-0.808-0.812-1.051-1.501-0.989c-0.608,0.054-1.827,0.489-1.831,1.279c-0.007,0.836-0.062,1.698,0.092,2.522 C51.206,24.119,51.182,24.225,51.159,24.322z"/>
  </g>
</svg>
